<?xml version="1.0" encoding="utf-8"?>
<!-- Generator: Adobe Illustrator 17.0.0, SVG Export Plug-In . SVG Version: 6.00 Build 0)  -->
<!DOCTYPE svg PUBLIC "-//W3C//DTD SVG 1.1//EN" "http://www.w3.org/Graphics/SVG/1.1/DTD/svg11.dtd">
<svg version="1.1" id="Layer_1" xmlns="http://www.w3.org/2000/svg" xmlns:xlink="http://www.w3.org/1999/xlink" x="0px" y="0px"
	 width="600px" height="600px" viewBox="0 0 600 600" enable-background="new 0 0 600 600" xml:space="preserve">
<circle fill="#575756" cx="302" cy="300" r="258.5"/>
<path fill="#838279" d="M456.667,115.333c34.578,28.21,46.972,66.197,30,87s-59.091,18.877-93.669-9.333
	S348.513,122.803,365.485,102S422.089,87.123,456.667,115.333z"/>
<path fill="#9D9C92" d="M449.562,120.332c29.982,24.46,40.487,64.297,25.771,82.335s-50.995,9.468-80.977-14.992
	c-29.982-24.46-38.571-60.866-23.855-78.904S419.581,95.872,449.562,120.332z"/>
<path fill="#838279" d="M420.793,154.249c8.354,6.816,11.348,15.993,7.248,21.019c-4.1,5.026-14.276,4.561-22.63-2.255
	c-8.354-6.816-10.747-16.96-6.647-21.986C402.864,146.001,412.439,147.433,420.793,154.249z"/>
<path d="M44.5,295.432c0-31.614,107.734-47.099,250.5-47.099s266.5,27.52,266.5,50.25v-6c0-22.73-123.734-50.25-266.5-50.25
	S44.5,259.421,44.5,291.035V295.432z"/>
<polygon fill="#9D9D9C" points="118.833,170.333 111,172.167 104.167,174.333 95,177.5 87.667,180.833 81.167,184 77.5,193.167 
	74.333,202.667 71.833,212.333 70.333,219.5 68.833,228.167 67.167,236.167 66,242.333 65.333,248.833 65.333,253.833 65.333,257.5 
	75.167,252.833 85.5,249.167 92.083,247 105.167,244.5 111.167,199.667 104.667,201.667 102.333,215 97.5,215.667 102,191.5 
	114.167,188.333 "/>
<polygon fill="#9D9D9C" points="126.5,168.167 128.333,167.333 126.5,173.333 123.333,185.167 121.833,192 120,201.833 118.833,211 
	117.167,218.667 116,230.667 115,242.333 112.667,243.167 114.167,228.833 117,207.833 120.5,191 123.167,177.833 "/>
<polygon fill="#9D9D9C" points="132.5,165.833 154.5,161.333 153.333,166.5 151.333,174.667 149,187 147,195 146.167,201.833 
	145,213.917 143.5,226.5 142.5,238.167 128.333,239.833 130,218.167 121.833,219.667 123.167,202.833 126.333,188.833 
	129.167,176.5 "/>
<polygon fill="#9D9D9C" points="338.5,152.167 340.167,152.167 341.333,164.833 342.667,198.167 343.5,229.167 341,229.833 
	339.5,183.5 "/>
<polygon fill="#9D9D9C" points="356.167,152.936 363.471,164.167 371.167,174.833 380.167,185.167 387.5,192.667 395.667,198.833 
	402.667,204.833 409,208.833 410.333,234.167 352.333,229.833 348.333,152.167 "/>
<path fill="#9D9D9C" d="M422.697,217.333l0.969,12.833H428V226l6.167,0.167v5.333h4.667v-4.333l4.833,0.167v5.5h4v-4L452,229
	c0,0,0.333,5.667,0,5.167s3.333,0,3.333,0v-4.333l6.167,0.333v4.031l3.667,1.135v-12H461.5v4.333l-5.833-0.333L455,222l-2.833-0.833
	l-0.5,5.167H447l-0.167-6h-2.901v5.333l-5.265-1l-0.833-5.833l-4.167-0.167l0.333,5.167l-6.667-0.5l0.333-6H422.697z"/>
<path fill="#9D9D9C" d="M491,206.333c0,0,5.167,39,4.167,39.333c-1,0.333-19.667-3.333-19.667-3.333l-1.833-21.667l5-1.667
	l3.257-2.71L491,206.333z"/>
<polygon fill="#9D9D9C" points="497.167,177.167 499.167,177.167 504.667,192.333 508.833,208.667 510.667,223.333 512.167,230.333 
	513.833,242.333 515.333,251.167 512.5,250.167 509.5,234.167 507.5,220 504.833,204.167 502.167,193.167 "/>
<polygon fill="#9D9D9C" points="297.333,150.667 333.333,151.333 334.833,229.833 296.333,228.667 "/>
<polygon fill="#9D9D9C" points="227.333,152.936 241.333,152.167 259.333,150.667 273.5,150.667 289,150.667 287.833,227.833 
	220.833,229.833 223.167,190.25 "/>
<polygon fill="#9D9D9C" points="160.667,160.5 164.667,159.667 174.667,157.833 188.667,156.667 202,155.167 217.667,153.833 
	214.833,180.667 212.5,203.333 211.333,217.5 211.5,231.167 189.167,232.167 170,233.833 156.667,235.5 149.833,238 152.5,203.667 
	156.167,178 "/>
<polygon fill="#9D9D9C" points="77.667,186.167 79.167,185.167 75.167,197.167 70.833,211.833 67.333,227 65.333,238 63.5,250.167 
	62.167,258.833 61,259.5 62.833,247.333 64.5,236.333 66.333,225.333 68.5,215.167 70.083,207.167 73.833,195.167 "/>
<polygon fill="#9D9D9C" points="58.833,260.667 55,263.167 50.833,267 47,272.5 47.978,257.5 50.768,243.167 55.488,225.197 
	61,207.5 67.833,190.167 81,164.667 85.833,156.167 92.826,149.47 74.833,182.5 70.083,202.833 62.333,233 "/>
<path fill="#9D9D9C" d="M219.833,152.167l57.667-3.333l2.333-37.5c0,0-47.667-0.167-52,1.833
	C223.5,115.167,219.833,152.167,219.833,152.167z"/>
<path fill="#9D9D9C" d="M216,152.167c0,0-39,4.167-40.833,4.5c-1.833,0.333,6.167-24.167,6.167-24.167l4.833-14l12-1.667
	l9.833-1.167l8-1.167l9-1.167l-4.167,12.833l-1.667,10.333L216,152.167z"/>
<polygon fill="#9D9D9C" points="161,158.833 169,157.5 171.667,147.333 175.667,135.002 181.333,119.333 174.894,120 
	171.167,130.333 167.667,139.083 164.167,149.667 "/>
<polygon fill="#9D9D9C" points="158.5,158.833 152.333,160.5 153.667,155.333 155.417,149.5 158.5,140 161,132.833 164.167,126.167 
	165.5,122 172.5,120.167 169.667,130.167 167.5,135.002 165.5,141.167 163.667,146.5 161,152.167 159.167,156.67 "/>
<polygon fill="#9D9D9C" points="164.167,122.667 158.667,135.002 156.167,143.333 153.5,150.667 151.167,159.667 143.333,162.667 
	145.5,155.333 150.667,140.333 156.333,126.667 158,123.333 "/>
<polygon fill="#9D9D9C" points="149.833,126.167 156.167,124.167 151.667,135.002 147.5,144.5 145.167,152.167 141.333,162.667 
	134.667,163.833 141.5,144 145.417,136.167 "/>
<path fill="#9D9D9C" d="M78.583,182.75c0,0,16.5-6.667,17.083-6.833c0.583-0.167,6.583-14.583,6.583-14.583l5.25-9.583
	c0,0,7.583-13.917,7.75-14.333c0.167-0.417-7.917,2.917-7.917,2.917l-9,5.333l-4.833,8.167l-2.583,4.833l-3.833,7.167L78.583,182.75
	z"/>
<polygon fill="#9D9D9C" points="98.917,174.333 102.083,173.167 107.75,171.667 114.25,169.75 120,168.167 124.083,166.833 
	126.333,166 130,156.583 135.583,144 139.75,133.083 142.083,128.333 142.083,127.75 138.167,128.833 130.25,131.333 121.833,134.5 
	120.167,135 117.25,136.667 111.417,147.917 105.5,158.833 101.75,167.75 "/>
<path fill="#9D9D9C" d="M188.667,116.583H191l4.333-10.75l4.167-7.917l4.667-8.167l5.583-8.417l4.5-7.333l8.833-9.667
	c0,0,6.583-5.25,6.167-5.167c-0.417,0.083,8.833-7,8.833-7l7.083-3.917l-3.25,1.167l-7.833,4.667l-8.583,7.083l-12.333,12.25
	L201.333,90.75l-4.583,8.583L192.333,109L188.667,116.583z"/>
<polygon fill="#9D9D9C" points="198,115.333 199.947,115.333 204.083,105.333 207.917,97.083 210.833,90.75 213,86.583 
	219.667,75.583 223,71.083 229.333,63.417 232.417,60.167 241.5,53.083 247.5,49 253.125,46.114 249.333,47.5 242.917,51.25 
	234.5,57.083 224.583,66.5 216.167,78.25 210.75,87.417 206.583,96.333 201,107.25 "/>
<polygon fill="#9D9D9C" points="201.333,114.833 204.25,114.083 209.5,101.5 218.417,82.833 227.083,69.5 234.25,60.833 
	239.75,56.167 247.833,50.083 256.333,46.114 250.5,48.25 245.667,51.083 240.417,55 234.25,59.583 231.833,62.917 228.833,66.583 
	222.833,73.917 219,79.75 214.583,88.667 208.5,100.583 205.25,107.333 "/>
<path fill="#9D9D9C" d="M285.583,148.833h31.167L316,110.5h-28.75l-0.833,19.167c0,0-0.917,15.083-0.833,15.333
	C285.667,145.25,285.583,148.833,285.583,148.833z"/>
<path fill="#9D9D9C" d="M319.167,149.25l7.417,0.5l7.667,0.5h4.25l7.25,0.417h4.083l5.333,0.333c0,0-1-20.583-1.25-20.583
	s-1-9.667-1-9.667l-0.917-8.5c0,0-6.917-1.083-7.083-0.833c-0.167,0.25-10.833-0.037-10.833-0.037h-7.917l-8.083,0.121
	L319.167,149.25z"/>
<path fill="#9D9D9C" d="M331.083,110.083l-16.5-0.417H301.5H290l0.583-12.75c0,0,0.667-14.083,0.667-14.333s1.333-13.5,1.333-13.5
	l1.25-12.25l1.5-9.333l2.333-5.167l0.25-0.833l16.094,0.274l3.49,2.809l3.167,8.25l4.25,15.25l2.917,13.667l1.833,9.667l0.833,9.167
	L331.083,110.083z"/>
<polygon fill="#9D9D9C" points="343.833,110.083 350,110.5 353.583,110.5 355.167,107.833 356.25,105.25 358,103.25 355.167,92.75 
	351.25,78.75 346.417,67.5 342.083,58.083 337.5,51.083 333.667,46.083 331.083,44.167 327.336,42.726 325.167,42.726 327.25,48.25 
	330.667,54.25 333,63 339.5,81.583 341.583,95.917 343.167,106.25 "/>
<polygon fill="#9D9D9C" points="360.917,99.667 363.471,97.167 365.75,94.833 368.75,92 371.75,90.167 373.167,90.167 
	368.667,78.333 362.667,68.417 356,59.5 350,51.75 344.583,47.5 339.752,44.237 336.763,43.818 338.75,48.333 342.583,53.333 
	345.5,59.583 349,64.75 352.833,72.333 354.965,78 357.377,84.75 358.833,90.5 360.417,98.003 "/>
<polygon fill="#9D9D9C" points="281,48.25 289.333,47.333 290.667,47.792 293.5,43.818 294.5,43.818 293.167,48.25 291.333,60.333 
	290,71.742 288.833,82.417 287.75,92.5 286.833,99.667 286.5,108.833 278.833,108.833 271,108.833 266,110.083 268.5,92 272.167,73 
	275.5,61 "/>
<path fill="#9D9D9C" d="M279.833,48.25c0,0-2.5,4.583-2.667,5.083c-0.167,0.5-2.5,6.167-2.5,6.167l-4,10.667l-1.5,6.446l-1.667,8.22
	l-1.5,7.833l-0.667,7L264,104.5l-1,5.583h-5.833h-8L244.5,110.5l5.333-20.919L254.5,74l4.667-9.333L263,56.833l3.833-5.333
	L270,48.25H279.833z"/>
<polygon fill="#9D9D9C" points="272.5,43.818 269.833,46.114 261.167,55.167 256.333,63.833 251.865,74.697 246.198,89.946 
	242.333,102.833 241.167,110.083 236.5,111.379 240.5,96 246.5,80.474 249.833,72.333 253.125,64.667 258.333,55.833 262.167,51 
	266,47.5 269.833,44.667 "/>
<polygon fill="#9D9D9C" points="231.5,111.33 214,113.333 216.917,103.167 219.833,96.833 225,85 228.833,76.613 231.333,71.742 
	236.5,66.167 239.167,62 242.167,58.667 245.167,55.167 249.167,52.333 252.333,49.667 259.5,49.667 256.333,53 251,61.5 
	245.167,71.742 241.167,81.5 237.833,91.167 234,102.667 "/>
<polygon fill="#9D9D9C" points="207.667,114.167 210.333,113.333 214,101.833 216.917,96.333 222,85.5 228,74.5 232.667,67.833 
	236.5,62.833 241.833,57.167 246.333,52.833 248.75,51.5 251.5,49.667 247.75,51.125 242.375,55.5 239.25,58.25 234.875,63 
	230.125,68.25 225.562,75.125 219.833,85.5 214.75,97.125 211.625,102.625 209.5,109.125 "/>
<path fill="#9D9D9C" d="M184.375,116.583l-11.875,2.292l-8.333,1.292l-7.042,1.958l-6,2.042c0,0,7.375-12.882,7.125-12.837
	s5.917-8.955,5.917-8.955L169.875,95L181.5,81.5l4.25-3.902l7.5-5.973l8.083-5.375l6.333-4.75l8.583-4.5l10.649-4.421l8.726-2.912
	l6.125-1.417l-13.625,8.375l-11.208,8.5L209.5,74.5l-8.167,8.625l-8.958,15.25l-3.708,8.25L184.375,116.583z"/>
<path fill="#9D9D9C" d="M142.083,125.125l-6.958,2.625c0,0-6.75,2.125-7.125,2.25s-3.625,1.748-3.625,1.748l6.375-10.498
	l5.125-7.917L141.5,107l4.625-5.125l4.125-5l5-5.25L161,87l5.25-5.083l7.125-5.292l5.95-4.218l11.662-5.922l8.96-4.059l11.715-4.701
	l4.647-1.683L199.125,66.25l-5,2.5l-5.458,4.75l-6.417,5.875l-9.75,10.5c0,0-8.417,9.125-8.333,9.625
	c0.083,0.5-10.417,11.879-10.417,11.879l-5.25,6.496l-3.083,6.292L142.083,125.125z"/>
<polygon fill="#9D9D9C" points="120.5,132.75 113.875,135.875 106.5,139.083 100.875,142.125 107.5,132.75 110.688,128.25 
	115.253,122.667 119.025,117.401 125.239,111.379 135.945,101.881 140.389,98.235 148.232,92.188 152.333,88.375 159.752,84.123 
	163.125,80.724 173.565,75.614 154.375,91.375 145.417,101.125 138.125,108.869 130.75,119.333 124.375,126.25 "/>
<path fill="#9D9D9C" d="M519.833,254.167l17.333,6.333v-13l-4.5-23l-3.333-16.667l-6.431-19.137L522.5,187.5l2.333,1.667l5.5,15.167
	L533,216.29l4.167,17.543l4.167,17.333L540.5,260.5l8.833,6.5l-2-19.667l-3.5-14.833l-4.5-18.333l-5.833-25.333l-6.378-15.975
	l-14.341-22.536l-19.922-24.665l-18.882-18.652l-15.167-12.527L442.191,82.78l-33.035-18.092L426.5,77l13.667,8.833l21.667,22.5
	c0,0,12.833,19.167,13.333,19.167s2,4.333,2,4.333L485.5,136l19.333,41.167l6.333,21.667l4.167,22L519.833,254.167z"/>
<path fill="#9D9D9C" d="M351.333,48c0.333-0.5,10,7.333,10,7.333l3.5,3.333l4.667,6.021l8.167,11.104l5,8.542l0.667,2.833
	l7.333-1.333l-6.333-8.167L377.5,67.572l-6.5-7.739l-6-6.167l-5.5-3.167l-4.535-2.523L351.333,48z"/>
<polygon fill="#9D9D9C" points="360.667,49.333 366,53 371,57.833 377.833,64.688 386.667,71.742 389.167,76.613 392.833,83.5 
	395.667,86.5 400.833,86.5 397.667,82 392.667,75.792 387.333,69 380.75,63 372.167,55.667 366,51.333 "/>
<path fill="#9D9D9C" d="M369.667,52.5l15.5,8.5l8.167,6.572l8.833,9.041l6,6.22l4.5,6c0,0,11.833,4.5,14,5.333
	c2.167,0.833-14.5-15.333-14.5-15.333l-8.833-8L392.5,61.667l-7.667-5l-9.667-4.167H369.667z"/>
<path fill="#9D9D9C" d="M395.833,60L405,65.833L412,71c0,0,5.833,5.893,6.5,5.613c0.667-0.28,4.197,3.887,4.197,3.887
	s3.191,3.333,4.164,3.833s5.472,5.248,5.472,5.248s2.167,2.419,2.5,2.919c0.333,0.5,2.5,2.833,2.5,2.833l1.833,2l5.333,4.5
	c0,0,2.5,3.5,2.167,3.333c-0.333-0.167,14.833,10.667,15.667,11c0.833,0.333-10-11.5-10.333-11.667s-15.5-17.333-15.5-17.333
	L430,81.5l-13.167-9.758l-6.333-4.17L395.833,60z"/>
<path fill="#9D9D9C" d="M432.5,520.167c0,0-17.5-1.667-18-1.667s-37-1.5-37.667-1.167c-0.667,0.333-51.833,0.57-52.333-0.048
	c-0.5-0.618-49.167,0-49.167,0L232,517.01l-37.833-1.51l-33.952,0.68L157.5,517l15.5,10l21,10.5l10.833,3.833l29.5,10.5l26,5.167
	c0,0,25.333,2.833,26,2.833c0.667,0,34.167,0,34.167,0h11.333l20.5-3.5l22.5-5.167L400.167,542l25-11.833l13-8.167L432.5,520.167z"
	/>
<path fill="#9D9D9C" d="M561.5,303.833c-0.167-0.5-14.333-9.833-14.333-9.833L535,290.5l-12.833-4.833l-1.333,13.667L518.167,323
	l-4,22.667l-3.5,14.833v1.667l13.167,2.333l9.167,1.667l4.833,2.167l5.833,3.167l4.667,3.833L549.5,378l5.169-23.148l5.165-25.018
	L561.5,303.833z"/>
<polygon fill="#9D9D9C" points="505.667,360.667 487.833,358 490,349 492.167,334.667 493.667,325.5 495.667,316 496.75,304 
	497.833,292.5 497.667,282.667 497.833,279 507.833,281.5 516,284.5 517.833,285.667 516.833,292.5 514.833,313 513.833,323 
	511.833,336.5 509.833,346.167 507.333,355.5 "/>
<path fill="#9D9D9C" d="M485.167,356.167l2.667-8.667l1.667-12l1.667-12l1.667-8.333l2.333-14.5V293v-9.5l0.833-5.167
	c0,0-9.5-1-9.5-1.5s-8.333-2.167-8.333-2.167s-9.833-0.667-9.333-0.833c0.5-0.167-0.833,24.75-0.833,24.75l-1.833,15.25l-2,17
	l-2.5,12.833l-2.167,9.5l14.167,2L485.167,356.167z"/>
<path fill="#9D9D9C" d="M455.667,352.667l4.833-24.833l1-18.833l1.167-23.333l1.667-11.834l-39-5.499l-29.333-3l-20.833-1.167H365.5
	l-2.167,38.333v11.667V333.5l-1.5,12.5l7.5,0.5l21.833,1l22.667,0.833l13.5,0.333c0,0,14.333,1.667,13.833,1.667
	S455.667,352.667,455.667,352.667z"/>
<polygon fill="#9D9D9C" points="353.333,346.5 339.833,345.833 326.333,345.833 311.667,345.833 311.667,318 311.667,300.833 
	311.667,278.833 311.667,262.5 326,262.5 339.833,262.5 353.333,263.333 357.5,264.167 356.5,283.5 356.5,298.583 355.333,328.333 
	"/>
<polygon fill="#9D9D9C" points="305.167,344.333 301.333,344.333 302,262.5 305.167,262 "/>
<polygon fill="#9D9D9C" points="299.333,344.333 270.167,344.333 270.167,261 296.667,261 "/>
<polygon fill="#9D9D9C" points="260.167,344.333 244.5,345.333 227.167,345.333 215.667,346.5 213.667,297.4 211.667,262.5 
	236.5,262.5 258.667,262.5 260.167,307.5 "/>
<path fill="#9D9D9C" d="M203,346.5l-21.167,0.833l-21.333,1.333l-4.833-40.333l-1-29.333v-10l30-3.167h13.667
	c0,0,1.333,38.5,1.333,38.667s2.667,27.833,2.667,27.833L203,346.5z"/>
<polygon fill="#9D9D9C" points="115.5,275.333 122,274.333 130.833,272.5 136.333,271.5 140.667,270.458 139.667,282.167 141.5,300 
	144.333,324.667 147,343.5 148.333,350 123.833,352.833 118,313.333 "/>
<path fill="#9D9D9C" d="M142.833,274.5l5.5-1.167h2c0,0,1.5,14.833,1.5,15.333s2,29.333,2,29.333l0.833,8.833l2.333,11.5l1,10.333
	l-7.583,1L148.333,342l-2.667-20.667L144,305.5l-2.5-20L142.833,274.5z"/>
<path fill="#9D9D9C" d="M117.5,352.833L111,354.5l-1.833-11.167l-3-15l-2.333-21.083l-1.5-15.917c0,0,0.5-12.5,0-13
	s6.833-2.5,6.833-2.5l-1.167,12.5l3.5,26.833l0.833,7.167l0.5,6.333l2.667,15.667L117.5,352.833z"/>
<polygon fill="#9D9D9C" points="103.667,355.5 109.904,354.5 107.667,345.5 105.167,334.5 104.333,323.5 102.309,307.25 
	100.5,292.5 100.5,282.833 95.333,283.667 95.333,293.833 97.667,312.5 98.5,321.333 99.5,333 101.5,343.833 "/>
<polygon fill="#9D9D9C" points="101.5,355.5 97,356.667 92.826,338.833 90.833,322.833 88.833,307.25 87.5,293.833 87.5,285.167 
	93.667,284 92.826,290.833 95.333,309.167 97,319.167 97.5,326.833 98.333,334.833 98.667,340.833 "/>
<polygon fill="#9D9D9C" points="56.667,291 53,293.5 46.167,298.583 44.5,302 46.167,319.167 47.833,335.833 50.583,349.667 
	53.167,363.667 54.178,373.762 58.833,369.667 64.333,366 65.5,365 61,334.833 56.833,308.833 "/>
<polygon fill="#9D9D9C" points="60,290.167 65.5,287.167 69.833,285.667 72.667,284 72.667,293.667 73.833,311.5 76.5,330.667 
	78.5,343.333 82.333,358.5 71.167,362.833 67,349.667 63.833,325.5 62.5,311.5 60,300.667 "/>
<polygon fill="#9D9D9C" points="74.167,289.5 74.167,301.667 76,315.167 77.5,328 80.167,340.333 81.667,351.167 84,359 89,359 
	85.167,339.667 81.583,322.167 80.5,306 79.167,285.5 "/>
<polygon fill="#9D9D9C" points="81.583,287.5 85.5,286.333 86.333,297.4 89,318.167 90.5,330 92.167,342.667 94.5,350.5 
	95.333,356.667 90.833,358 87.5,344.333 84.167,329.833 82.333,318 82.333,302.333 "/>
<polygon fill="#9D9D9C" points="469.509,496.89 482.775,484.776 491.803,475.493 500.504,465.596 490.75,462.25 471.75,459.5 
	454.25,457.25 433.25,455.25 420.5,455.25 416.25,455.25 410,470.75 402.75,483.25 398.5,490 398.5,491.5 408.25,491.5 
	432.25,491.75 443.5,492.75 456.25,494.5 "/>
<path fill="#9D9D9C" d="M395.75,489.5l9-17.25l6.75-11.5c0,0,3.5-6,4-7.25s-5.25,0-5.25,0l-4.61,7.25L401,472.5l-5.25,8.5l-3.75,8.5
	H395.75z"/>
<polygon fill="#9D9D9C" points="379.25,491 382,491 390,477.25 399.5,455.25 399.5,452.944 395.25,452.944 392,462 389.375,471.222 
	384.75,479.5 "/>
<polygon fill="#9D9D9C" points="372.75,489.5 375.5,489.5 381.25,478.75 385,471.972 389.375,460.5 392,454 392,451.25 
	388.25,451.25 385.5,461.5 382.375,471.972 376,481.25 "/>
<path fill="#9D9D9C" d="M370.25,489.5l9-20.75c0,0,5.25-16.361,5-15.806c-0.25,0.556-33.75-0.014-33.75-0.014L306,450h-16.25h-3.25
	l1.5,39.5H370.25z"/>
<polygon fill="#9D9D9C" points="278,489.5 275.5,451.25 256.75,451.25 262.75,489.5 "/>
<polygon fill="#9D9D9C" points="259.25,489.5 255.25,466.75 252.75,450 204.75,450 217.25,487.5 217.5,489.5 "/>
<polygon fill="#9D9D9C" points="215.25,489.5 202,452.944 186,451.25 170.5,452.944 191.25,491 "/>
<polygon fill="#9D9D9C" points="188.5,491 168.75,451.25 167,452.944 186,491 "/>
<polygon fill="#9D9D9C" points="163.75,452.944 152.75,452.944 140.75,455.25 146.75,465.5 154.5,476.07 168,491 184.75,491 
	174.25,471.972 165.75,458.5 "/>
<polygon fill="#9D9D9C" points="162.75,492.25 152.75,492.25 144.75,492.25 132,478.5 126.25,469.75 120.25,461 115.5,456.25 
	128,456.25 136,454 149.5,473.125 163.75,492.25 "/>
<polygon fill="#9D9D9C" points="139.625,493.5 131.25,496.75 125.5,492.25 109,475.25 99,464.5 101.692,463.41 108.75,459.75 
	112.25,457 "/>
<polygon fill="#9D9D9C" points="234,447.25 248,447.25 256.75,447.25 265.75,447.25 261.25,395 223.25,395 "/>
<polygon fill="#9D9D9C" points="232,447.25 228.5,447.25 223.25,425.75 220.75,406.5 219,395 221,395 225.5,424.5 228,433.75 "/>
<polygon fill="#9D9D9C" points="212.25,396.25 215.25,395 216.5,403.75 220.5,423.5 223.25,432.5 225.5,445 227.25,447.25 
	223.25,448.5 223.25,445 219.75,432.5 217.5,421.125 215.25,407 "/>
<polygon fill="#9D9D9C" points="207,398 170.5,399.25 184.75,445.25 186.75,448.5 217,447.25 212.25,433.25 "/>
<polygon fill="#9D9D9C" points="162.75,398 162.75,401.75 165.25,401.75 173.75,426.5 182.75,447.25 168.25,450 152.5,409 
	149.75,399 "/>
<polygon fill="#9D9D9C" points="147,400 134.25,400 142.25,423.25 148.333,438 156,450 166.25,451.25 159.25,436.75 154.25,421.125 
	"/>
<polygon fill="#9D9D9C" points="126.5,402.25 130,402.25 134.25,409.5 139.625,424 144.75,437.5 148.333,445 152.5,451.25 
	149.75,451.25 140.75,433.25 137.25,423.25 131.917,408.75 "/>
<path fill="#9D9D9C" d="M123,402.25h1.5l15.125,35.25L147,450l-7.375,2.944H135L126.5,431l-9-16.75l-2-2.75l7.25,1.25
	c1.75-0.5,1.75-0.5,1.75-0.5L123,402.25z"/>
<polygon fill="#9D9D9C" points="107.75,404.75 107.75,407.75 111.5,407.75 130,444.25 134.25,452.944 126.5,454 113.5,431.5 
	106.5,417.5 101.5,405.75 "/>
<polygon fill="#9D9D9C" points="95.333,406.25 104,426.75 117.5,448.5 121,454 113.75,455.75 101.5,433.25 91,415.75 87.5,408.5 "/>
<polygon fill="#9D9D9C" points="84.25,408 74.167,411.5 70.142,414.426 82.333,438 99,462.5 109,457 109.904,455.75 102.619,443.75 
	92,427.597 89,419.667 84.333,411.5 "/>
<polygon fill="#9D9D9C" points="79.333,406.25 68.736,411.539 61.834,395.799 57.944,385.411 55,376.333 56.833,374.5 
	59.167,372.333 64.333,369.333 65.5,368.167 "/>
<polygon fill="#9D9D9C" points="70.142,365.667 74.167,364.167 80,384.833 85.833,400 88.458,404.75 85,406.25 78.5,389 
	74.167,375.833 "/>
<polygon fill="#9D9D9C" points="79.3,372.667 84.667,370.333 82.333,361.333 85.5,361.333 89,378.333 94.5,393.833 99,402.25 
	90.833,404.75 82.333,384.333 "/>
<polygon fill="#9D9D9C" points="86.5,360.5 88.458,360.5 92.833,377.833 98.333,391.167 102.309,401.167 100.5,402.25 99,401 
	96.833,394.833 92.667,383.042 90.023,375 87.5,365.833 "/>
<polygon fill="#9D9D9C" points="90.023,360.5 94.5,359 99,375.333 101.5,386.5 105.333,393.833 107.833,401.333 103.333,401.333 
	99,391.833 95.333,380.167 92.333,371.333 "/>
<polygon fill="#9D9D9C" points="96.167,359 100.667,358 102.619,362.833 106.667,375 109.904,386.667 114.25,400 110.625,400 
	102.875,380.167 "/>
<polygon fill="#9D9D9C" points="104.25,358 109.904,356.667 116.125,355.5 119.875,355.5 122.125,361.333 115.5,361.333 
	118.375,372.125 121,382.25 126,382.25 128.625,381.375 131.917,384.625 134.875,397.25 122.25,399 115.5,399 109.904,382.25 
	106,364.167 "/>
<path fill="#9D9D9C" d="M127.625,354.5c0,0,2.125,8.625,2.25,10.25s4.375,17.625,4.375,17.625l2.375,9.25c0,0,1.625,5.25,1.375,5.25
	s2.875-0.625,2.875-0.625L137,384.5l-2.75-14l-4-11.5l-0.375-4.5H127.625z"/>
<polygon fill="#9D9D9C" points="131.917,353.875 144.5,352.833 152.5,351.875 155.75,365.125 158,377.25 160.875,389.853 162.5,395 
	142.375,396.25 139.5,383.042 135.875,369.5 133.125,358 "/>
<polygon fill="#9D9D9C" points="160.5,351 176.875,349.667 189.75,349.667 200.25,348.667 205.5,384.875 206.625,392.5 
	187.75,394.375 169.875,394.375 168,383 162.5,360.25 "/>
<polygon fill="#9D9D9C" points="204,348.667 212.25,347.5 218.375,347.5 220.25,348.083 221.875,372.5 224.625,388.75 
	214.313,390.75 213.75,392.875 209.25,392.875 "/>
<path fill="#9D9D9C" d="M225.5,347.5c0.125-0.25,44.667-1.5,44.667-1.5L272,391.625l-42.75,1.25l-3.75-44.75V347.5z"/>
<polygon fill="#9D9D9C" points="274.25,346.5 274.875,364.625 274.875,391.25 281.875,391.875 281.875,388.875 298,389.125 
	298,362.125 297.125,346.5 "/>
<path fill="#9D9D9C" d="M301.333,346.5h5.792l8.75,0.625l5.25-0.313c0,0,0.625,17.188,0.625,17.563s0,11,0,11s0.875,14.875,0,14.875
	s-20.417-0.5-20.417-0.5V346.5z"/>
<polygon fill="#9D9D9C" points="327.875,347.375 331.625,347.375 329.75,391.875 325.875,391.875 "/>
<polygon fill="#9D9D9C" points="337.625,348.625 360.625,348.625 356.625,389.125 337.625,389.125 337.625,391.875 334.583,392.875 
	"/>
<path fill="#9D9D9C" d="M372.625,348.625l15.75,1l11.375,1h13.875l5,2.042l-2.75,19.083c0,0,6,0,5.625,0s-5.5,23.5-5.5,23.5
	l-49.25-1.375L372.625,348.625z"/>
<path fill="#9D9D9C" d="M428,352l9.25,0.667c0,0,9.75,2.083,10.125,2.083s11,0.625,11,0.625l7.5,0.792l-8.25,31.708l-3.375,1.375
	l-2.75,8.917l-32.667-2.917l5.5-24.5L428,352z"/>
<path fill="#9D9D9C" d="M474.167,358.167c-0.333,0-9.833,36.167-9.833,36.333S462,399,462,399l28.167,3
	c0,0,9.833-21.833,9.333-21.917C499,380,504.333,364.5,504.333,364.5l0.833-2.333L474.167,358.167z"/>
<polygon fill="#9D9D9C" points="508.667,365 516.667,365.833 508.667,393.167 508.667,396.833 499.5,395.25 496,400 496,403.833 
	492.333,403.833 "/>
<path fill="#9D9D9C" d="M520.167,366.333c0,0,5.167,1.333,5.667,1.5c0.5,0.167,1.5,1.333,1.5,1.333l-5.833,18.5l-3.667,8.833
	l-4.333,8.167h-6.833l3.167-8.5l3-9l3.833-10l3.5-7.5V366.333z"/>
<path fill="#9D9D9C" d="M529.333,368.333l2,0.833c0,0-2.833,7-3,7.667c-0.167,0.667-3,10.167-3,10.167L523,394.5l-3.833,8.167
	L517.833,407l-2.167,1.333L514.833,407l1.833-2.333l2.667-6.5l3.75-10.833L526.5,378L529.333,368.333z"/>
<polygon fill="#9D9D9C" points="533.833,370.333 539,371.938 539,374.5 533.833,387.167 529.333,398.167 526.5,405.833 524,410.333 
	520.333,408.333 523.083,404.667 525.667,395.25 528.833,385.5 531.333,378.667 532.333,373.5 "/>
<polygon fill="#9D9D9C" points="541.333,373.833 545.5,378 547.855,380.083 542.5,398.167 536.083,412.833 534,416.5 526,412 
	530.333,402.667 534.667,391.167 539,380.083 "/>
<path fill="#9D9D9C" d="M489,457.667l15.5,4.5l13.833-18.5l9-13.833L532.5,419.5c0,0-14-7.5-14.5-7.667
	c-0.5-0.167-7.25,16.5-7.25,16.5l-9.417,15L489,457.667z"/>
<polygon fill="#9D9D9C" points="487.333,457.667 492.333,450.5 501.667,437.667 508.667,423.5 514.833,411.832 506.667,409 
	497.333,427.667 489,441.333 482.5,450.833 479.333,456 "/>
<polygon fill="#9D9D9C" points="476.833,455.25 492.333,429.5 498,420.333 502.333,411.832 503.5,409 483.583,405.833 473,429 
	461.5,452.944 460,454.5 "/>
<polygon fill="#9D9D9C" points="454.833,455.25 469.333,430.542 475.333,417.833 480.333,404.667 460,403.833 449.502,429.542 
	440.333,444.333 435.167,452 "/>
<polygon fill="#9D9D9C" points="430.5,452.944 440.167,434.833 448.5,414.667 453.167,400.833 438,400.833 427,433.333 
	421.517,446.833 417.5,452.944 "/>
<polygon fill="#9D9D9C" points="383.333,450 399.5,450 405.5,435.833 413.5,409 416.333,399.167 416.333,397.5 398.5,398.167 
	392,425.667 387.5,441.5 "/>
<path fill="#9D9D9C" d="M379.25,449.167l7.083-18.625L392,408.333c0,0,2.6-10.167,2.133-10.167c-0.467,0,0.056-2,0.056-2
	l-13.023,1.333l-3.333,11.5L375,426.889L371.167,441l-4.417,8.167H379.25z"/>
<polygon fill="#9D9D9C" points="357.333,449.167 363.667,419.667 366.75,396.167 337.167,396.167 334.583,421.75 331.625,439.167 
	331.625,448.5 "/>
<polygon fill="#9D9D9C" points="326.5,447.25 331,395.25 326.5,395.25 324.167,447.25 "/>
<path fill="#9D9D9C" d="M318,446.333l3-52.167c0,0-40.333,0.167-40.333,1.083s1.333,52,1.333,52L318,446.333z"/>
<polygon fill="#9D9D9C" points="268.333,447.25 276.167,447.25 273.5,396.167 265,395 "/>
</svg>
