<?xml version="1.0" encoding="utf-8"?>
<!-- Generator: Adobe Illustrator 17.0.0, SVG Export Plug-In . SVG Version: 6.00 Build 0)  -->
<!DOCTYPE svg PUBLIC "-//W3C//DTD SVG 1.1//EN" "http://www.w3.org/Graphics/SVG/1.1/DTD/svg11.dtd">
<svg version="1.1" id="Layer_1" xmlns="http://www.w3.org/2000/svg" xmlns:xlink="http://www.w3.org/1999/xlink" x="0px" y="0px"
	 width="600px" height="600px" viewBox="0 0 600 600" enable-background="new 0 0 600 600" xml:space="preserve">
<polygon fill="#C7C0B7" points="450.431,239.301 331.836,11.414 306.502,11.414 303.502,31.414 302.169,54.748 304.502,89.748 
	304.836,166.748 413.502,253.748 "/>
<polygon fill="#C7C0B7" points="108.227,239.301 226.822,11.414 252.155,11.414 255.155,31.414 256.489,54.748 254.155,89.748 
	253.822,166.748 145.155,253.748 "/>
<path fill="#A19D96" d="M491.246,396.58c-14.083,104.738-103.815,185.501-212.411,185.501
	c-106.316,0-194.553-77.408-211.424-178.938l29.758-6.563l-7.333-13.166l0.667-38l4.667-20l-25.09-6.451
	c22.083-94.869,107.166-165.549,208.757-165.549c101.087,0,185.83,69.981,208.424,164.139l-19.424,0.99l2.667,12.204l2.667,46.667
	l-6.667,14.667L491.246,396.58z"/>
<path fill="#C7C0B7" d="M433.002,528.162c-39.184,42.769-91.097,69.586-153.674,69.586c-62.1,0-113.525-26.41-152.669-68.611
	v-26.889l118.842-103h79l108.11,101.91L433.002,528.162z"/>
<rect x="251.5" y="301" fill="#969793" width="63.667" height="22.833"/>
<polygon fill="#8C8983" points="317.507,295.414 317.84,257.081 315.174,239.748 321.174,239.748 321.174,226.414 314.507,226.414 
	305.84,89.748 246.16,89.748 237.493,226.414 230.826,226.414 230.826,239.748 236.826,239.748 234.16,257.081 234.493,295.414 "/>
<circle fill="#CAC7C2" cx="284.285" cy="361.581" r="51.833"/>
<circle fill="#D2C9BB" cx="182.358" cy="249.5" r="19.53"/>
<path opacity="0.5" fill="#2A2826" d="M228.173,448L217,465l-7,8.667l-8.667,21.667c0,0-3.667,14-4.667,15.333
	c-1,1.333-6,8.667-6,8.667l-1.667,8L187.667,539l-9.6,7.333L187,555l21.25,1.667l5.626,3c0,0,5.124-9.667,5.457-10.667
	c0.333-1,2.491-7,3.912-10c1.421-3,3.101-6,4.928-13s2.396-12.333,4.278-14.333c1.882-2,1.882-2.333,4.215-5
	c2.333-2.667,7.236-4.338,7.618-8.169c0.382-3.831,2.715-6.791,3.382-10.644c0.667-3.853,0.201-0.853,1.767-6.52
	c1.566-5.667-0.1-5.516,2.566-9.592c2.667-4.075,0.667-4.408,3-6.742c2.333-2.333,1.667-0.108,3.333-2.887
	c1.667-2.779,2.005-5.113,2.502-6.113c0.498-1-0.831-1,0-4s0.676-1.669,0.115-4s2.162-0.329-0.561-2.331
	c-2.723-2.002-3.056-0.669-5.39-2.669c-2.333-2-0.799-3-5.566-3s-5.386-1-10.077,1.667c-4.69,2.667-8.057,6-8.057,6L228.173,448z"/>
<path opacity="0.5" fill="#2A2826" d="M265.5,457.667c0,0,2.854,6,2.677,9c-0.177,3,1.51,1.15,0,5.075
	c-1.51,3.925-1.51,5.258-2.677,6.258s-1.833,2.333-1.833,4.667c0,2.333,0.333,1.04,0,5.187c-0.333,4.147,0.667,6.147,0,8.813
	c-0.667,2.667-0.09,7.667-2.045,10.333s-4.955,4-2.955,8.667c2,4.667,3.817,8,4.742,11s2.925,4,2.092,8.333s-4.35,6-2.092,11.333
	c2.258,5.333,5.925,9.333,7.258,10c1.333,0.667,1.333,1,5.333,3.333c4,2.333,8.726,4.667,8.726,4.667s4.608,2,7.941,2.333
	c3.333,0.333,3.667,12,5.667,0s2.583-11.333,4.792-16c2.208-4.667,4.888,0.667,5.048-7.667s1.961-3.667-0.439-12.333
	C305.333,522,304.667,526,305,519.333c0.333-6.667,0-2,0.333-8.667c0.333-6.667,0-4.517,0-10.925c0-6.408-1.084-4.741-2.208-10.075
	c-1.125-5.333-5.006-1-2.732-8s0.94-2.667,2.274-7c1.333-4.333-0.417-3.333,0.458-6.333c0.875-3,0.125,0.39,0-5.305
	c-0.125-5.695,3.224-4.755,0-8.714c-3.224-3.958-3.224-3.958-3.224-3.958h-1.235c0,0-9.333-5.687-11-4.355
	c-1.667,1.332-6.338,0.332-7.836,3.665C278.333,453,276,454.315,276,454.315s2.333,1.685-1.167,1.685s-6.657-1.685-6.657-1.685
	L265.5,457.667z"/>
<path opacity="0.5" fill="#2A2826" d="M308.173,449.333c0,0,3.16,20.817,3.16,22.408s1.499,0.592,2.25,6.258
	s6.084,20.498,6.084,20.498s0,2.099,3.333,5.467c3.333,3.368,3.425,6.368,6.213,8.702c2.787,2.333,6.024,4.667,6.905,6.667
	s2.548,3,6.215,6.333c3.667,3.333,8.333,7.333,8.667,9c0.333,1.667,0.333,4.667,2,6.667s9,7.333,10,7.333s4,1.667,5.667,0
	c1.667-1.667,3.333-3.333,7-5.333c3.667-2,5.764,4,5.382-2c-0.382-6,1.618-4.333-1.382-9.667c-3-5.333-9-16.667-9.667-20
	c-0.667-3.333-1,2.333-1-4.667s1.667-0.004,0-8.502c-1.667-8.498,0.985-5.296-3.75-10.644c-4.735-5.349-2.443-2.992-5.534-7.235
	c-3.091-4.243-3.444-1.046-4.747-5.666s-0.303-1.286-2.636-7.286c-2.333-6-1.333-0.333-2.667-8.333c-1.333-8-0.667-8-1.667-10
	s-2.351-0.402-2.676-3.534c-0.324-3.132,1.201-1.799-0.562-4.132c-1.763-2.333-7.165-4.729-7.165-4.729s-9.264-0.729-10.264,0
	c-1,0.729-3-3.638-6.667,2.879C317,446.333,308.173,449.333,308.173,449.333z"/>
<circle fill="#343335" cx="284.285" cy="454.315" r="16.108"/>
<circle fill="#343335" cx="284.285" cy="501.158" r="16.108"/>
<circle fill="#343335" cx="324.285" cy="446.001" r="16.108"/>
<circle fill="#343335" cx="345.324" cy="487.853" r="16.108"/>
<circle fill="#343335" cx="244.285" cy="446.001" r="16.108"/>
<circle fill="#F7E829" stroke="#000000" stroke-miterlimit="10" cx="246.001" cy="353.414" r="3.432"/>
<circle fill="#F7E829" stroke="#000000" stroke-miterlimit="10" cx="170.256" cy="364.467" r="5.418"/>
<circle fill="#F7E829" stroke="#000000" stroke-miterlimit="10" cx="170.256" cy="364.467" r="7.809"/>
<circle fill="#F7E829" stroke="#000000" stroke-miterlimit="10" cx="118.85" cy="364.467" r="5.418"/>
<circle fill="#F7E829" stroke="#000000" stroke-miterlimit="10" cx="118.85" cy="364.467" r="7.809"/>
<circle fill="#F7E829" stroke="#000000" stroke-miterlimit="10" cx="246.001" cy="368.748" r="3.432"/>
<circle fill="#F7E829" stroke="#000000" stroke-miterlimit="10" cx="322.569" cy="353.414" r="3.432"/>
<circle fill="#F7E829" stroke="#000000" stroke-miterlimit="10" cx="322.569" cy="368.748" r="3.432"/>
<circle fill="#343335" cx="223.245" cy="487.853" r="16.108"/>
<polygon fill="#343335" points="129.836,410 129.836,417.414 146.836,449.748 151.502,454.315 183.169,424.748 173.5,407 "/>
<path fill="#DFD9C5" d="M93.551,332.348H77.169l-7.667,13.066v29l6.333,14.333h16.971
	C92.806,388.748,128.876,367.673,93.551,332.348z"/>
<path fill="#B0AC9C" d="M237.311,339.661l16.524,8.421v25.333l-16.524,10.1C237.311,383.514,223.787,364.907,237.311,339.661z"/>
<path fill="#B0AC9C" d="M330.107,339.661l-16.524,8.421v25.333l16.524,10.1C330.107,383.514,343.632,364.907,330.107,339.661z"/>
<polygon fill="#7C7A6E" points="226.167,337.247 226.167,388.748 95.944,399.248 89.281,383.514 90.502,345.414 94.639,327.685 "/>
<polygon fill="#A29E95" points="340.396,335.086 340.396,384.748 463.5,393 472.354,379.207 471.012,339.661 465,325 "/>
<path fill="#DFD9C5" d="M467.5,331.097H483l5.25,11.653l2.996,31.5l-7.996,11.5h-15.096
	C468.154,385.75,453.25,337.443,467.5,331.097z"/>
<rect x="340.396" y="338.074" fill="#B7AA8C" width="129.964" height="45.441"/>
<rect x="224" y="298.833" fill="#918C80" width="117.667" height="16.667"/>
<rect x="346.167" y="352.575" fill="#CCC9AD" width="100.167" height="21.347"/>
<polygon fill="#343335" points="392.75,401.75 388.5,410 383.5,421.5 417,454.315 425.5,440.75 432,425.75 438.75,407.5 "/>
<polygon fill="#E30613" points="365.25,463.5 374,471.742 382.25,462.113 373.75,454.315 "/>
<polygon fill="#A29A87" points="141.509,239.284 204.897,218.95 209.842,227.45 144.342,245.95 "/>
<rect x="201" y="149.5" fill="#E0DBCB" width="13" height="35.333"/>
<polygon fill="#E30613" points="234.155,143.5 241.5,143.5 241.5,135.833 223.833,135.833 223.833,160.538 234.155,158.079 "/>
<circle fill="#343335" cx="207.5" cy="105.931" r="12.417"/>
<circle fill="#343335" cx="185.444" cy="160.538" r="12.417"/>
<circle fill="#343335" cx="351.158" cy="105.931" r="12.417"/>
<circle fill="#343335" cx="373.213" cy="160.538" r="12.417"/>
<polygon fill="#B7AA8C" points="89.281,384.748 226,384.748 226.167,341.75 89.281,341.75 "/>
<rect x="106.419" y="352.575" fill="#C9C3B5" width="100.167" height="21.347"/>
<circle fill="#DCDDD7" cx="415.423" cy="361.581" r="5.418"/>
<circle fill="#343335" cx="415.423" cy="361.581" r="4.532"/>
<circle fill="#DCDDD7" cx="119.489" cy="363.249" r="7.796"/>
<circle fill="#343335" cx="119.489" cy="363.249" r="6.521"/>
<circle fill="#DCDDD7" cx="169.246" cy="363.249" r="7.796"/>
<circle fill="#343335" cx="169.246" cy="363.249" r="6.521"/>
<rect x="206.586" y="356.656" fill="#BEBDB1" width="14.581" height="15.524"/>
<rect x="448.167" y="353.771" fill="#BEBDB1" width="15.167" height="13.977"/>
<polygon fill="#E30613" points="395.097,388.415 394.375,397.25 392.059,403.091 388.277,410.512 367,399.248 369.75,393 
	370.134,386.741 "/>
<polygon fill="#E30613" points="124.269,410.5 124.269,404.25 153.25,402.75 153.25,408.391 "/>
<rect x="176.75" y="375.25" fill="#E30613" width="31.5" height="5.75"/>
<polygon fill="#343335" points="373.213,238.25 373.213,227.25 353.75,214.5 339.25,232.5 340.396,247 356.232,255.5 366.5,249.5 
	"/>
<polygon fill="#E30613" points="385.63,250.25 373.213,240 366.5,249.5 376.065,257.75 382.75,255.5 "/>
<polygon fill="#E30613" points="376.3,260.75 360.797,252.833 356.232,255.5 373.213,265.5 "/>
<polygon fill="#E30613" points="209.75,327.685 206.586,335.823 226.167,337.247 "/>
<polygon fill="#F1EEE0" points="435.25,174.25 454.75,127.5 474.5,120.5 500.25,120.5 507.25,126 526,165.25 527.25,176.25 
	529.25,272 527.5,278.75 482.25,297.5 445.25,311 385.63,326.75 361.5,331.097 340.396,293 378.75,265.5 398.75,251.5 428.75,233.5 
	434.823,225.798 "/>
<polygon fill="#787575" points="482.5,124.75 496.75,124.75 506,153.414 506,157 482.5,157 "/>
<polygon fill="#787575" points="477.5,124.75 477.5,149.75 464.75,151.5 469.5,127.25 "/>
<polygon fill="#787575" points="464.75,155.75 477.5,153.414 477.5,157 464.75,164 "/>
<polygon fill="#787575" points="460.25,157 460.25,165 447,169.5 447,164 450.431,158.707 "/>
<polygon fill="#787575" points="461.5,153.414 450.431,155.75 458.25,134.5 458.75,128.75 464.75,127.75 "/>
<polygon fill="#787575" points="501.25,124.75 506,130.25 514.5,151.5 507.875,151.5 "/>
<polygon fill="#787575" points="511,154.5 511,158.707 518,160.538 516.5,154.5 "/>
<path fill="#343335" d="M266.703,381L255,392l6.833,6.627l10.5,3.123L276,384.748C276,384.748,274.697,373.486,266.703,381z"/>
<polygon fill="#343335" points="279.329,384.748 289.667,384.748 294.618,401.75 289,404.333 279.329,404.333 274.833,401.75 "/>
<polygon fill="#343335" points="292.667,384.748 299.401,384.748 302.467,380.088 313.583,391.333 308.173,397.333 298.5,401.75 "/>
<path fill="#E30613" d="M302.526,331.097l-37.026,1.369l-11.664-12.833c0,0,23.557-20.806,56.621-2.803L302.526,331.097z"/>
<polygon fill="#B4AA97" points="213.5,292.5 206.586,300 199.833,307.833 194.5,316.5 170.167,305.5 172.833,300 180.167,286 
	188,278.5 192.667,274.167 "/>
<polygon fill="#887F6D" points="117.535,329.35 125,303.5 80.214,287.051 75.041,301.184 70.079,318.964 95.169,325.414 
	94.639,327.685 "/>
<rect x="366.266" y="356.162" fill="#C4BEAB" width="22.734" height="7.087"/>
<polygon fill="#D4CDBD" points="436.467,182.329 454.908,176 478.783,171.667 515.783,171.667 524.283,172.955 528.533,176.25 
	528.533,191 522.95,191 476.95,191 466.033,192.581 436.467,199.667 "/>
<polygon fill="#A59F94" points="457.59,188 471.125,185.667 501.25,183.333 518,184.667 527.25,188 527.25,180 509.667,176.333 
	486,176.333 469.333,178 457.59,180.667 "/>
<polygon fill="#E0DECF" points="269.169,384.748 260.836,372.081 271.032,352.414 297.537,352.414 307.734,372.081 299.401,384.748 
	"/>
<polygon fill="#6C685E" points="371,297.333 376.065,305.667 385.63,305.667 400.667,297.333 494,257.75 499,248.875 
	481.217,236.667 481.217,248.875 "/>
<polygon fill="#343335" points="279.329,365.315 289.25,365.315 287.5,378.416 281,378.416 "/>
<rect x="279.329" y="359" fill="#E8E6DA" width="9.921" height="6.315"/>
<rect x="345" y="148.122" fill="#62635D" width="15.797" height="38.878"/>
<rect x="348.5" y="153.414" fill="#62635D" width="9.5" height="16.086"/>
<rect x="163.009" y="234.401" transform="matrix(0.9652 -0.2615 0.2615 0.9652 -55.6575 54.1788)" fill="#BFB8A8" width="25.5" height="3.667"/>
<rect x="348.5" y="174" fill="#62635D" width="9.5" height="11.667"/>
<rect x="484" y="216.25" fill="#CBC6B4" width="27" height="15"/>
<path fill="#62635D" d="M478.344,394.234L464.75,442.25l12.306,7.17c0,0,14.936-47.259,14.19-52.84L478.344,394.234z"/>
<rect x="232.667" y="19.5" fill="#62635D" width="15.583" height="10.5"/>
<rect x="236.75" y="16.75" fill="#62635D" width="11.5" height="4.75"/>
<rect x="310.75" y="16.75" fill="#62635D" width="13.752" height="14.5"/>
<rect x="310.75" y="16.75" fill="#62635D" width="13.752" height="7.25"/>
<polygon fill="#62635D" points="373.213,124.75 382.75,118.348 393.25,138.125 383.232,143.25 "/>
<rect x="250" y="519.75" fill="#62635D" width="3.5" height="16"/>
<rect x="317.5" y="515.25" fill="#62635D" width="8.25" height="29.25"/>
<polygon fill="#62635D" points="180,471.742 183.169,466 191.75,473.25 188.5,480 "/>
<polygon fill="#62635D" points="94.25,430.657 101.25,448 111.691,441.75 106.419,426.75 "/>
<path fill="#62635D" d="M126.011,294L145,263.5l-24-15.75c0,0-25.421,30.75-23.461,34.25S126.011,294,126.011,294z"/>
<path fill="#B7B6B0" d="M209.75,327.685l-3.164,7.401l-41.749-1.336c0,0,6.132-20.127,8.913-22.75S209.75,327.685,209.75,327.685z"
	/>
<ellipse fill="#F0EEE0" cx="244.459" cy="356.481" rx="4.287" ry="4.118"/>
<ellipse fill="#F0EEE0" cx="244.459" cy="371.937" rx="4.287" ry="4.118"/>
<ellipse fill="#F0EEE0" cx="322.419" cy="356.481" rx="4.287" ry="4.118"/>
<ellipse fill="#F0EEE0" cx="322.419" cy="371.937" rx="4.287" ry="4.118"/>
<circle fill="#8D8A7E" cx="284.285" cy="338.074" r="19.53"/>
<rect x="273.952" y="322.091" fill="#DCDDD7" width="20.667" height="25.99"/>
<rect x="278.549" y="327.873" fill="#F6F6F0" width="11.472" height="14.427"/>
<polygon fill="#B8B6AC" points="175.436,260.225 192.178,251.479 183.807,235.275 167.822,242.625 "/>
<polygon fill="#606366" points="281.479,576.53 285.145,576.466 285.412,591.797 294.744,591.635 294.831,596.634 273.834,597 
	273.776,593.667 281.43,592.867 "/>
<polygon fill="#606366" points="304.731,575.046 308.367,574.573 310.345,589.778 319.6,588.574 320.245,593.533 299.42,596.241 
	298.99,592.935 306.507,591.285 "/>
<polygon fill="#606366" points="327.672,570.974 331.233,570.098 334.896,584.987 343.959,582.758 345.153,587.613 324.761,592.629 
	323.965,589.393 331.25,586.914 "/>
<polygon fill="#606366" points="350.015,564.366 353.456,563.098 358.758,577.485 367.516,574.258 369.245,578.949 349.54,586.211 
	348.388,583.083 355.351,579.807 "/>
<polygon fill="#606366" points="371.481,555.304 374.758,553.66 381.634,567.366 389.976,563.18 392.218,567.649 373.448,577.066 
	371.953,574.087 378.507,570.053 "/>
<polygon fill="#606366" points="391.8,543.903 394.873,541.903 403.236,554.755 411.059,549.664 413.786,553.855 396.185,565.309 
	394.367,562.515 400.429,557.775 "/>
<polygon fill="#606366" points="410.719,530.304 413.55,527.973 423.296,539.811 430.501,533.879 433.679,537.739 417.467,551.086 
	415.348,548.513 420.843,543.126 "/>
<polygon fill="#606366" points="258.516,575.442 262.167,575.782 260.744,591.049 270.037,591.916 269.572,596.894 248.663,594.945 
	248.973,591.626 256.668,591.674 "/>
<polygon fill="#606366" points="234.073,571.446 237.657,572.217 234.432,587.207 243.557,589.17 242.505,594.059 221.975,589.641 
	222.676,586.383 230.311,587.344 "/>
<polygon fill="#606366" points="210.276,564.577 213.744,565.768 208.762,580.27 217.589,583.302 215.965,588.031 196.104,581.209 
	197.187,578.056 204.654,579.916 "/>
<polygon fill="#606366" points="187.462,554.933 190.764,556.527 184.097,570.335 192.502,574.394 190.328,578.896 171.417,569.765 
	172.867,566.763 180.06,569.497 "/>
<polygon fill="#606366" points="165.955,542.65 169.044,544.625 160.786,557.544 168.649,562.571 165.956,566.784 148.263,555.473 
	150.058,552.665 156.877,556.232 "/>
<polygon fill="#606366" points="146.057,527.901 148.89,530.229 139.156,542.077 146.368,548.001 143.194,551.865 126.968,538.534 
	129.084,535.959 135.431,540.31 "/>
<path fill="#A59F94" d="M395.097,253.748c9.467,3.498,24.859,22.061,24.859,22.061l22.506-9.895c0,0-19.328-20.249-28.796-23.747
	L395.097,253.748z"/>
<rect x="266" y="109.667" fill="#BDBCBC" width="29" height="55.667"/>
<rect x="269.667" y="171.667" fill="#C3C6A5" width="26.667" height="82.081"/>
<rect x="263.333" y="262.667" fill="#BDBCBC" width="38.836" height="32.667"/>
<rect x="254.667" y="169.5" fill="#C6C4BA" width="8.667" height="38.5"/>
<rect x="253.333" y="208" fill="#96958D" width="10" height="21.97"/>
<rect x="302.169" y="190.667" fill="#AEB294" width="8.164" height="39.303"/>
<rect x="253.333" y="113.333" fill="#E6EAC1" width="5.667" height="34.788"/>
<path fill="#F1EEE0" d="M420.843,288.776l6.782-2.876c0,0,9.355,20.609,7.199,27.854l-6.829,1.804
	C427.994,315.558,425.019,292.886,420.843,288.776z"/>
<line fill="none" stroke="#000000" stroke-width="2" stroke-miterlimit="10" x1="235.326" y1="249.5" x2="318.132" y2="249.5"/>
</svg>
