<?xml version="1.0" encoding="utf-8"?>
<!-- Generator: Adobe Illustrator 17.0.0, SVG Export Plug-In . SVG Version: 6.00 Build 0)  -->
<!DOCTYPE svg PUBLIC "-//W3C//DTD SVG 1.1//EN" "http://www.w3.org/Graphics/SVG/1.1/DTD/svg11.dtd">
<svg version="1.1" id="Layer_1" xmlns="http://www.w3.org/2000/svg" xmlns:xlink="http://www.w3.org/1999/xlink" x="0px" y="0px"
	 width="600px" height="600px" viewBox="0 0 600 600" enable-background="new 0 0 600 600" xml:space="preserve">
<rect x="518.5" y="293.393" fill="#DED8CC" width="10" height="179.607"/>
<polygon fill="#AEA69C" points="533.167,468.333 509.833,468.333 376.667,512.167 377.5,397 533.167,397 "/>
<rect x="510" y="375.5" fill="#E6007E" width="26" height="95"/>
<rect x="513.5" y="470.5" fill="#8F8A80" width="19.667" height="13"/>
<rect x="338" y="375.5" fill="#A4988D" width="49.167" height="119.5"/>
<rect x="346.503" y="538.5" fill="#6A5F50" width="33.493" height="30"/>
<rect x="265" y="347.5" fill="#E6007E" width="70" height="165.5"/>
<polygon fill="#ABA497" points="335,513 265,513 269.737,531.5 330.263,531.5 "/>
<rect x="265" y="347.5" fill="#8F8173" width="70" height="165.5"/>
<polygon fill="#AEA69C" points="66.833,468.333 90.167,468.333 223.333,512.167 222.5,397 66.833,397 "/>
<rect x="71.5" y="293.393" fill="#DED8CC" width="10" height="179.607"/>
<rect x="73.542" y="230.465" fill="#DED8CC" width="5.915" height="62.928"/>
<rect x="71.5" y="293.393" fill="#95875B" width="10" height="21.714"/>
<rect x="74.074" y="185.9" fill="#332D26" width="4.853" height="39.135"/>
<rect x="64" y="375.5" fill="#E6007E" width="26" height="95"/>
<rect x="64" y="375.5" fill="#DCD9D4" width="26" height="95"/>
<rect x="510" y="375.5" fill="#DCD9D4" width="26" height="95"/>
<rect x="66.833" y="470.5" fill="#8F8A80" width="19.667" height="13"/>
<rect x="68.965" y="209" fill="#E6007E" width="15.069" height="12.5"/>
<rect x="67" y="225.035" fill="#E0DCD4" width="19.001" height="5.43"/>
<rect x="212.833" y="375.5" fill="#A4988D" width="49.167" height="119.5"/>
<rect x="222.5" y="495" fill="#9B9793" width="28.5" height="43.5"/>
<rect x="229.463" y="495" fill="#C3BFB7" width="14.573" height="43.5"/>
<rect x="349" y="495" fill="#9B9793" width="28.5" height="43.5"/>
<rect x="355.963" y="495" fill="#C3BFB7" width="14.573" height="43.5"/>
<rect x="220.003" y="538.5" fill="#6A5F50" width="33.493" height="30"/>
<polygon fill="#AEA59C" points="267.5,347.5 267.5,278 277.5,90 280,58 293,13.5 307,13.5 320,58 322.5,90 332.5,278 332.5,347.5 
	"/>
<polygon fill="#8D8471" points="267.5,347.5 267.5,278 277.5,90 277.5,90 285,75 315,75 322.5,90 322.5,90 332.5,278 332.5,347.5 
	"/>
<polygon fill="#770F00" points="315,75 318,90 328,278 327.5,347.5 332.5,347.5 332.5,278 322.5,90 "/>
<polygon fill="#770F00" points="285,75 282,90 272,278 272.5,347.5 267.5,347.5 267.5,278 277.5,90 "/>
<polygon fill="#342D22" points="280,343.763 275.667,318.965 281,254.298 284.333,248.965 315.667,248.965 319,254.298 
	324.333,318.965 320,343.763 "/>
<rect x="287.5" y="371.75" fill="#524531" width="25" height="147"/>
<circle fill="#6F6251" cx="300" cy="372.25" r="12.25"/>
<circle fill="#770F00" cx="300" cy="372.25" r="9.253"/>
<circle fill="#6F6251" cx="300" cy="372.25" r="6.287"/>
<circle fill="#770F00" cx="300" cy="372.25" r="2.837"/>
<rect x="68.965" y="209" fill="#E0DCD4" width="15.069" height="12.5"/>
<rect x="514" y="225.035" fill="#E0DCD4" width="19.001" height="5.43"/>
<rect x="520.542" y="230.465" fill="#DED8CC" width="5.915" height="62.928"/>
<rect x="518.5" y="293.393" fill="#95875B" width="10" height="21.714"/>
<rect x="521.074" y="185.9" fill="#332D26" width="4.853" height="39.135"/>
<rect x="515.965" y="209" fill="#E6007E" width="15.069" height="12.5"/>
<rect x="514" y="225.035" fill="#E0DCD4" width="19.001" height="5.43"/>
<rect x="515.965" y="209" fill="#E0DCD4" width="15.069" height="12.5"/>
<rect x="67" y="225.035" fill="#E0DCD4" width="19.001" height="5.43"/>
<rect x="288.25" y="248.965" fill="#1D1713" width="23.5" height="41.035"/>
<rect x="288.25" y="290" fill="#0D0C0C" width="23.5" height="28.5"/>
<rect x="64" y="386.5" fill="#403627" width="26" height="4.5"/>
<polygon fill="#D5D1C8" points="182.5,430.25 170.167,435.25 170.167,475 182.5,475 182.5,493.333 201.5,493.333 201.5,438 "/>
<rect x="212.833" y="386.91" fill="#770F00" width="49.167" height="4.5"/>
<rect x="338" y="386.91" fill="#770F00" width="49.167" height="4.5"/>
<rect x="510" y="386.5" fill="#403627" width="26" height="4.5"/>
<rect x="182.333" y="398" fill="#CDC3C1" width="30.5" height="70"/>
<polygon fill="#D5D1C8" points="417.5,430.25 429.833,435.25 429.833,475 417.5,475 417.5,493.333 398.5,493.333 398.5,438 "/>
<rect x="387.167" y="398" fill="#CDC3C1" width="30.5" height="70"/>
<polygon fill="#770F00" points="505.5,397 477.5,397 477.5,447.667 450.167,454.583 450.167,461.792 505.5,449 "/>
<polygon fill="#524531" points="129.52,481.287 110.5,475.026 110.5,398 129.52,398 "/>
<polygon fill="#524531" points="470.48,481.287 489.5,475.026 489.5,398 470.48,398 "/>
<polygon fill="#770F00" points="95.5,397 123.5,397 123.5,447.667 150.833,454.583 150.833,461.792 95.5,449 "/>
<polygon fill="#770F00" points="506.5,397 478.5,397 478.5,447.667 451.167,454.583 451.167,461.792 506.5,449 "/>
<rect x="128.417" y="404.958" fill="#C6BCB1" width="16.667" height="18.083"/>
<rect x="128.417" y="426.208" fill="#C6BCB1" width="16.667" height="18.083"/>
<rect x="456.917" y="404.958" fill="#C6BCB1" width="16.667" height="18.083"/>
<rect x="456.917" y="426.208" fill="#C6BCB1" width="16.667" height="18.083"/>
<rect x="257.333" y="410.905" fill="#524531" width="9.333" height="87.357"/>
<rect x="333.333" y="410.905" fill="#524531" width="9.333" height="87.357"/>
</svg>
